<svg width="9" height="18" viewBox="0 0 9 18" fill="none" xmlns="http://www.w3.org/2000/svg">
    <path d="M4.76477 15.9579C4.71857 15.9818 4.66662 15.9923 4.61476 15.9883C4.56291 15.9843 4.51319 15.966 4.4712 15.9353C4.42921 15.9046 4.39661 15.8628 4.37706 15.8146C4.35751 15.7664 4.35178 15.7137 4.36052 15.6624V15.6639L5.08352 10.9757L1.74302 7.60818C1.7067 7.57159 1.68113 7.52572 1.66912 7.47558C1.6571 7.42545 1.6591 7.37297 1.67489 7.32389C1.69068 7.27482 1.71966 7.23102 1.75866 7.1973C1.79766 7.16358 1.84517 7.14122 1.89602 7.13268H1.89752L6.57977 6.37218L9.00002 2.67993V0.62793L5.91002 5.34168L1.71677 6.02343C1.46337 6.06447 1.22604 6.1741 1.0305 6.34041C0.834967 6.50673 0.688687 6.7234 0.607518 6.96693L0.604518 6.97668C0.589518 7.02168 0.574518 7.07793 0.563268 7.13493L0.561768 7.14393V7.68093C0.618018 7.96443 0.753768 8.21043 0.943518 8.40093L3.88427 11.3657L3.24752 15.4929C3.20766 15.7491 3.23945 16.0113 3.33936 16.2506C3.43927 16.4898 3.60341 16.6968 3.81362 16.8485C4.02383 17.0003 4.27193 17.091 4.53046 17.1105C4.789 17.13 5.04789 17.0776 5.27852 16.9592L5.27027 16.9629L8.99852 15.0819V13.8219L4.76477 15.9579Z" fill="#1667E0"/>
</svg>
