<svg width="18" height="18" viewBox="0 0 18 18" fill="none" xmlns="http://www.w3.org/2000/svg">
    <path d="M17.3671 6.98486C17.2864 6.73614 17.1391 6.5143 16.9411 6.34346C16.7432 6.17262 16.5022 6.05931 16.2444 6.01586L16.2361 6.01436L12.1614 5.35211L10.2721 1.68161C10.1523 1.44837 9.97073 1.25255 9.74717 1.11555C9.52361 0.978554 9.26669 0.905644 9.0045 0.904793C8.7423 0.903941 8.48492 0.975181 8.26047 1.11073C8.03603 1.24627 7.85316 1.44091 7.73186 1.67336L7.72811 1.68086L5.83886 5.35136L1.76411 6.01361C1.50486 6.05622 1.26232 6.16932 1.06303 6.34051C0.863732 6.51171 0.715359 6.73443 0.634137 6.98429C0.552914 7.23415 0.541972 7.50153 0.602507 7.75719C0.663042 8.01286 0.792722 8.24695 0.977361 8.43386L3.88511 11.3649L3.25586 15.4449C3.21515 15.7055 3.24738 15.9724 3.34898 16.2159C3.45057 16.4594 3.61757 16.67 3.83148 16.8244C4.0454 16.9789 4.29788 17.0711 4.56097 17.0909C4.82406 17.1107 5.0875 17.0573 5.32211 16.9366L5.31386 16.9404L8.99936 15.0811L12.6856 16.9404C12.9209 17.059 13.1843 17.1104 13.4469 17.0889C13.7095 17.0673 13.961 16.9736 14.1738 16.8181C14.3865 16.6627 14.5521 16.4515 14.6524 16.2078C14.7527 15.9641 14.7838 15.6975 14.7421 15.4374L14.7429 15.4456L14.1136 11.3656L17.0214 8.43461C17.2089 8.24746 17.3402 8.0116 17.4007 7.75367C17.4611 7.49575 17.4482 7.22606 17.3634 6.97511L17.3664 6.98486H17.3671ZM16.2234 7.64186L12.9166 10.9756L13.6329 15.6166C13.6417 15.6724 13.6348 15.7295 13.6131 15.7816C13.5915 15.8337 13.5557 15.8787 13.51 15.9118C13.4642 15.9448 13.4102 15.9645 13.3539 15.9686C13.2976 15.9728 13.2412 15.9613 13.1911 15.9354L13.1926 15.9361L9.00011 13.8211L4.80761 15.9361C4.75739 15.9619 4.70099 15.9732 4.6447 15.9688C4.58841 15.9644 4.53445 15.9445 4.48885 15.9112C4.44326 15.8779 4.40782 15.8325 4.3865 15.7803C4.36518 15.728 4.35881 15.6708 4.36811 15.6151V15.6166L5.08436 10.9756L1.77761 7.64186C1.738 7.60214 1.71009 7.55227 1.69696 7.49773C1.68384 7.44318 1.68599 7.38608 1.7032 7.33268C1.7204 7.27929 1.75199 7.23166 1.79449 7.19505C1.83699 7.15843 1.88876 7.13423 1.94411 7.12511H1.94561L6.58061 6.37211L8.72936 2.19686C8.75513 2.14728 8.79397 2.10571 8.84169 2.07664C8.8894 2.04758 8.94416 2.03213 9.00003 2.03198C9.0559 2.03182 9.11075 2.04697 9.15862 2.07577C9.2065 2.10457 9.24557 2.14593 9.27161 2.19536L9.27236 2.19686L11.4211 6.37211L16.0561 7.12511C16.1114 7.13425 16.1632 7.15842 16.2057 7.19498C16.2482 7.23154 16.2799 7.27907 16.2972 7.3324C16.3146 7.38573 16.3169 7.4428 16.304 7.49737C16.2911 7.55195 16.2635 7.60193 16.2241 7.64186H16.2234Z" fill="#1667E0"/>
</svg>
